<svg version="1.1" id="Layer_1" xmlns="http://www.w3.org/2000/svg" xmlns:xlink="http://www.w3.org/1999/xlink" x="0px" y="0px"
	 width="100%" viewBox="0 0 623 594" enable-background="new 0 0 623 594" xml:space="preserve">
<path fill="#FEFEFE" opacity="1.000000" stroke="none" 
	d="
M423.000000,595.000000 
	C282.028839,595.000000 141.557678,595.000000 1.043262,595.000000 
	C1.043262,397.069489 1.043262,199.138977 1.043262,1.104230 
	C208.554504,1.104230 416.109070,1.104230 623.831787,1.104230 
	C623.831787,198.999878 623.831787,396.999939 623.831787,595.000000 
	C557.138916,595.000000 490.319458,595.000000 423.000000,595.000000 
M393.804199,329.112000 
	C395.117462,328.468231 396.633423,328.061554 397.710175,327.141113 
	C403.416809,322.262848 403.444183,311.935516 397.875610,306.556854 
	C391.678619,300.571198 380.456238,301.251343 374.678314,307.962677 
	C369.714661,313.728302 370.690460,323.499298 376.663147,327.999786 
	C377.940033,328.961945 379.165833,329.991974 380.066742,331.873047 
	C380.173676,343.462219 380.227539,355.052307 380.428406,366.639862 
	C380.473206,369.223663 379.408478,370.244202 376.463440,369.768738 
	C375.821442,368.136169 375.179443,366.503601 374.345306,364.104370 
	C369.400726,347.511841 360.604370,333.083893 348.735992,320.680786 
	C307.022552,277.088013 239.666214,268.056976 187.975662,299.096771 
	C165.428513,312.636169 148.427643,331.198029 138.171249,356.415466 
	C136.653290,360.872986 135.135345,365.330475 132.829132,369.821533 
	C129.410095,370.383911 128.122040,369.067200 128.178802,365.495148 
	C128.353516,354.500702 128.125259,343.499329 128.350708,332.506775 
	C128.382385,330.961243 130.073029,329.449738 131.688431,327.949615 
	C136.899704,323.740784 137.831436,318.215576 136.076630,312.187744 
	C134.345062,306.239777 129.628571,303.497040 123.897293,302.454376 
	C116.701469,301.145416 109.264168,305.961853 107.286644,312.965454 
	C105.315117,319.947815 108.473534,326.703674 115.088974,329.726807 
	C115.365623,330.141327 115.642281,330.555817 115.711906,331.821411 
	C115.754234,333.569092 115.796570,335.316742 115.640434,337.938843 
	C115.700287,340.621948 115.760139,343.305084 115.625404,346.910919 
	C115.625404,354.333923 115.625404,361.756958 115.625404,369.029724 
	C101.007927,370.907104 97.009911,375.485687 96.975494,389.397339 
	C96.959846,395.721527 96.885857,402.046783 96.970222,408.369781 
	C97.118324,419.469818 103.583984,425.373047 115.729210,424.906494 
	C120.640625,424.906494 125.552048,424.906494 129.312500,424.906494 
	C132.366730,432.697754 135.005966,439.430389 137.813873,446.868500 
	C138.209671,448.962402 138.605453,451.056305 138.261200,452.975281 
	C136.912949,452.400513 135.615845,451.580017 134.208923,451.287201 
	C105.269127,445.264130 76.061577,442.006073 46.468964,443.460236 
	C39.849846,443.785461 33.234856,444.780334 26.694334,445.909302 
	C22.477741,446.637146 21.920586,448.731506 25.192162,451.476471 
	C38.307602,462.480774 51.060116,474.013580 64.889984,484.051575 
	C100.292450,509.747253 139.844864,526.940613 182.080353,537.743225 
	C198.124084,541.846680 214.664413,544.008667 231.625183,547.527283 
	C243.025635,548.557861 254.427872,550.457092 265.826172,550.433716 
	C287.898895,550.388367 309.969452,549.260681 332.953705,548.621704 
	C341.828278,547.384644 350.802460,546.626404 359.555542,544.805420 
	C375.114502,541.568420 390.539490,537.687622 406.818237,534.053955 
	C443.070618,523.945007 477.337067,509.413483 508.743134,488.454712 
	C524.444763,477.976257 538.796082,465.913422 551.750244,452.198547 
	C552.781128,451.107178 553.184082,449.422638 553.878784,448.013733 
	C552.418762,447.412689 550.984802,446.377869 549.494019,446.288147 
	C544.020142,445.958801 538.527466,445.943329 532.640564,445.116882 
	C532.137207,440.746765 531.633789,436.376648 531.262085,431.089020 
	C530.114868,417.058014 528.967712,403.027008 527.928345,388.107391 
	C526.130798,367.732910 524.333191,347.358459 522.672241,326.132446 
	C520.844421,304.190430 519.016602,282.248413 517.098328,259.221161 
	C518.855652,260.386597 519.534851,260.777954 520.149231,261.253113 
	C544.346924,279.967834 571.113037,293.779083 600.199951,303.140747 
	C603.521362,304.209717 607.302551,305.648712 609.846863,302.164703 
	C612.465637,298.578705 610.257874,295.210541 608.026367,292.161591 
	C607.438171,291.357971 606.848206,290.538330 606.148560,289.836121 
	C594.761353,278.407593 583.772827,266.537872 571.840027,255.709000 
	C559.534058,244.541443 546.657837,233.846313 531.073669,227.289154 
	C527.569519,225.814758 525.715515,223.913269 524.692566,220.066849 
	C523.750977,216.526459 521.418457,213.156158 519.027161,210.266663 
	C517.226562,208.091034 516.704041,206.652359 517.619019,203.798492 
	C519.228638,198.777771 520.615112,193.494644 520.870728,188.261612 
	C522.550476,153.868256 517.536499,120.198616 508.909668,87.012550 
	C508.446655,85.231384 505.657288,83.032013 503.775940,82.851608 
	C499.629364,82.454010 498.937439,86.237389 498.395386,89.354111 
	C494.378387,112.452820 490.048096,135.507690 486.632477,158.696548 
	C484.426270,173.674606 483.354523,188.847733 487.622894,203.824783 
	C487.939819,204.936859 486.749847,206.643372 485.955566,207.877289 
	C483.206543,212.147858 480.408112,216.393097 477.442200,220.513916 
	C476.448975,221.893936 475.085876,223.365601 473.567352,223.945297 
	C468.149933,226.013306 462.284119,227.096512 457.141266,229.661667 
	C431.910339,242.246384 409.726959,259.154724 389.425140,278.604309 
	C386.380310,281.521393 381.879700,284.317749 384.593628,289.403961 
	C387.300903,294.477814 392.213226,292.368500 396.251068,291.404816 
	C428.963684,283.597626 459.833923,271.583740 487.440338,251.400543 
	C487.440338,252.636215 487.529358,254.197464 487.426849,255.746033 
	C486.052521,276.508270 484.651489,297.268738 483.085571,318.493500 
	C483.085571,318.493500 483.175873,318.979767 482.992950,319.827606 
	C482.294464,331.885437 481.595947,343.943268 480.558685,356.750519 
	C480.277588,361.502594 479.996460,366.254639 479.380402,371.866974 
	C478.220703,389.120148 477.081696,406.374786 475.870209,423.624298 
	C475.744629,425.412628 475.187805,427.170654 473.991608,428.890289 
	C470.352814,429.186035 466.706238,429.780609 463.077576,429.686371 
	C459.974304,429.605743 458.333466,430.482666 457.181671,433.519257 
	C454.176727,441.441681 450.933807,449.283539 447.507172,457.034363 
	C438.973267,476.337250 430.284454,495.571655 420.929199,514.944031 
	C415.637482,516.490479 410.345764,518.036926 405.726288,519.038696 
	C416.930786,505.315704 423.944397,489.349792 431.032776,473.023712 
	C414.226135,473.023712 398.114349,473.023712 381.079926,472.852631 
	C375.719696,472.928192 370.359467,473.003754 364.268433,472.933197 
	C363.006226,473.582886 361.467590,473.961395 360.523804,474.923462 
	C348.817474,486.856812 334.938049,495.422089 319.428894,501.382019 
	C313.516693,503.653931 307.389465,505.366364 301.279449,507.360107 
	C314.961151,516.261353 328.405426,525.008179 341.000092,533.798157 
	C338.017487,534.149414 335.034912,534.500610 331.696106,534.289246 
	C314.666626,524.408325 297.637115,514.527405 280.143890,504.156708 
	C279.132874,503.198151 278.121887,502.239594 277.997864,501.358490 
	C297.574921,499.346008 316.080933,493.814819 333.166962,484.001190 
	C356.449554,470.628540 373.513397,452.265747 380.193665,425.068939 
	C385.823578,425.037445 391.455750,425.095612 397.082825,424.952789 
	C404.914124,424.754028 410.785400,419.460480 411.101776,411.675171 
	C411.471191,402.586243 411.360504,393.468658 411.136230,384.371460 
	C411.083527,382.232605 409.739746,380.125610 409.033997,377.300171 
	C405.660828,370.992462 399.435883,369.894928 392.905823,369.019470 
	C392.905823,355.784943 392.905823,342.892639 393.062042,329.618835 
	C393.062042,329.618835 393.076355,329.206787 393.804199,329.112000 
M396.139648,430.181519 
	C395.143066,430.164856 394.124268,430.277008 393.153748,430.109467 
	C388.629333,429.328400 386.471252,431.142181 385.138153,435.641663 
	C383.548828,441.005737 381.080048,446.165253 378.511719,451.166626 
	C376.200928,455.666473 373.240417,459.832672 370.418976,464.384003 
	C379.513580,464.384003 388.230713,464.384003 397.758301,464.568726 
	C404.847778,464.522064 411.937286,464.475403 419.922455,464.672089 
	C423.897064,464.696564 427.898499,464.995331 431.833099,464.610657 
	C433.409454,464.456512 435.538422,463.141693 436.214355,461.765198 
	C439.198730,455.687531 441.745453,449.394958 444.898834,442.688843 
	C448.254211,435.166901 451.609558,427.644958 455.168671,419.666260 
	C453.446136,419.496521 452.347412,419.294769 451.248657,419.294495 
	C441.103912,419.291992 430.956421,419.466400 420.815826,419.271729 
	C417.124634,419.200897 414.718567,420.236908 413.198914,424.235840 
	C411.385071,425.790771 409.571198,427.345703 406.971893,429.004852 
	C403.656860,429.461334 400.341797,429.917847 396.139648,430.181519 
M442.493561,411.619751 
	C446.647858,411.604889 450.843628,411.926880 454.937775,411.423157 
	C456.791443,411.195068 459.179932,409.728760 460.052429,408.129517 
	C462.986786,402.750946 465.397217,397.081879 467.915741,391.482361 
	C470.324432,386.127136 472.617737,380.720001 475.211914,374.760956 
	C463.768738,374.760956 453.153839,374.923340 442.548676,374.673004 
	C438.831116,374.585266 436.860748,375.857941 435.327972,379.177887 
	C433.176758,383.837341 430.412109,388.210175 427.999542,392.753265 
	C424.847992,398.687958 421.784088,404.669250 418.714172,410.569489 
	C419.550140,411.128357 419.811279,411.454895 420.075714,411.457581 
	C427.215637,411.531189 434.355927,411.571564 442.493561,411.619751 
M423.564850,385.163361 
	C425.383514,381.743805 427.202179,378.324249 429.236450,374.499329 
	C424.192688,374.499329 419.980286,374.499329 415.990204,374.499329 
	C417.160187,380.516449 418.289429,386.324005 419.542084,392.766235 
	C420.926544,390.124634 422.060699,387.960541 423.564850,385.163361 
z"/>
<path fill="#E83131" opacity="1.000000" stroke="none" 
	d="
M483.257080,318.029663 
	C484.651489,297.268738 486.052521,276.508270 487.426849,255.746033 
	C487.529358,254.197464 487.440338,252.636215 487.440338,251.400543 
	C459.833923,271.583740 428.963684,283.597626 396.251068,291.404816 
	C392.213226,292.368500 387.300903,294.477814 384.593628,289.403961 
	C381.879700,284.317749 386.380310,281.521393 389.425140,278.604309 
	C409.726959,259.154724 431.910339,242.246384 457.141266,229.661667 
	C462.284119,227.096512 468.149933,226.013306 473.567352,223.945297 
	C475.085876,223.365601 476.448975,221.893936 477.442200,220.513916 
	C480.408112,216.393097 483.206543,212.147858 485.955566,207.877289 
	C486.749847,206.643372 487.939819,204.936859 487.622894,203.824783 
	C483.354523,188.847733 484.426270,173.674606 486.632477,158.696548 
	C490.048096,135.507690 494.378387,112.452820 498.395386,89.354111 
	C498.937439,86.237389 499.629364,82.454010 503.775940,82.851608 
	C505.657288,83.032013 508.446655,85.231384 508.909668,87.012550 
	C517.536499,120.198616 522.550476,153.868256 520.870728,188.261612 
	C520.615112,193.494644 519.228638,198.777771 517.619019,203.798492 
	C516.704041,206.652359 517.226562,208.091034 519.027161,210.266663 
	C521.418457,213.156158 523.750977,216.526459 524.692566,220.066849 
	C525.715515,223.913269 527.569519,225.814758 531.073669,227.289154 
	C546.657837,233.846313 559.534058,244.541443 571.840027,255.709000 
	C583.772827,266.537872 594.761353,278.407593 606.148560,289.836121 
	C606.848206,290.538330 607.438171,291.357971 608.026367,292.161591 
	C610.257874,295.210541 612.465637,298.578705 609.846863,302.164703 
	C607.302551,305.648712 603.521362,304.209717 600.199951,303.140747 
	C571.113037,293.779083 544.346924,279.967834 520.149231,261.253113 
	C519.534851,260.777954 518.855652,260.386597 517.098328,259.221161 
	C519.016602,282.248413 520.844421,304.190430 522.272461,326.548615 
	C521.044128,326.305267 520.033630,325.781830 519.420349,324.961395 
	C517.328003,322.162354 514.882202,320.593750 511.193085,321.564636 
	C509.331299,298.402740 507.575775,275.673401 505.786896,252.512375 
	C502.932495,253.490921 500.606476,254.288315 498.091553,255.150482 
	C497.289673,267.480896 496.492584,279.738129 495.354248,292.089172 
	C494.071655,295.080475 492.499512,297.954163 492.388763,300.883179 
	C492.300354,303.220917 493.992401,305.625946 494.965454,308.460083 
	C494.587646,317.533752 494.163605,326.149841 493.682434,334.762726 
	C493.193115,343.521820 492.647552,352.277802 491.781433,360.895325 
	C487.923340,359.170685 484.410400,357.585907 480.897430,356.001099 
	C481.595947,343.943268 482.294464,331.885437 483.226044,319.320679 
	C483.676422,318.499878 483.609070,318.238525 483.257080,318.029663 
M510.542725,144.021103 
	C508.713348,131.310089 506.883972,118.599083 505.054626,105.888077 
	C503.824493,106.473015 503.434814,107.024445 503.345825,107.620735 
	C500.281799,128.157715 496.683075,148.638138 494.455627,169.266449 
	C493.418091,178.875183 494.918488,188.780914 495.599915,198.528854 
	C495.708191,200.077667 497.329193,202.502136 498.661072,202.823959 
	C507.003937,204.839905 509.429504,203.137207 511.313354,194.649872 
	C511.707672,192.873383 512.113220,191.033630 512.065125,189.235046 
	C511.669708,174.459305 511.168243,159.686417 510.542725,144.021103 
M553.842224,252.651169 
	C544.806030,245.939468 536.225830,238.480911 525.208496,234.877472 
	C522.934753,238.373810 520.794189,241.665344 517.842957,246.203491 
	C539.107849,267.640869 565.825317,279.982300 593.565674,290.717346 
	C582.017883,276.465088 568.539368,264.426422 553.842224,252.651169 
M421.354980,274.855408 
	C439.711884,268.317505 457.416443,260.378754 473.882721,249.894974 
	C476.327637,248.338348 478.297729,245.932861 480.191864,243.672379 
	C480.823975,242.917984 480.964142,241.218994 480.579315,240.249451 
	C479.610260,237.807877 478.214142,235.535843 477.009613,233.234879 
	C463.419952,231.342209 413.999756,266.218628 400.482391,281.035522 
	C401.298157,280.979553 401.987091,281.061859 402.589508,280.871002 
	C408.602661,278.966034 414.601593,277.016022 421.354980,274.855408 
M507.475311,241.278458 
	C508.478149,240.695953 509.538666,240.193375 510.474304,239.517792 
	C516.017395,235.515411 518.329712,228.859222 516.319824,222.836060 
	C513.961243,215.767960 508.164124,211.599655 500.893280,211.743790 
	C494.204315,211.876404 488.170593,216.332291 486.301880,222.615463 
	C484.528961,228.576630 485.970947,234.239212 490.158905,238.294189 
	C494.618164,242.611862 500.544800,243.922699 507.475311,241.278458 
z"/>
<path fill="#D3316C" opacity="1.000000" stroke="none" 
	d="
M230.978394,547.055542 
	C214.664413,544.008667 198.124084,541.846680 182.080353,537.743225 
	C139.844864,526.940613 100.292450,509.747253 64.889984,484.051575 
	C51.060116,474.013580 38.307602,462.480774 25.192162,451.476471 
	C21.920586,448.731506 22.477741,446.637146 26.694334,445.909302 
	C33.234856,444.780334 39.849846,443.785461 46.468964,443.460236 
	C76.061577,442.006073 105.269127,445.264130 134.208923,451.287201 
	C135.615845,451.580017 136.912949,452.400513 138.638397,453.436340 
	C140.598755,456.358337 142.183365,458.818329 143.764618,461.280487 
	C145.178482,463.482025 146.588638,465.685883 147.602524,467.914185 
	C116.022255,460.579254 84.607056,455.219116 52.198181,456.771057 
	C52.533546,457.671082 53.154053,457.970306 53.669151,458.396790 
	C82.526276,482.289276 114.617241,500.591034 149.573105,513.961243 
	C179.423264,525.378540 210.335922,532.365356 242.000763,536.656250 
	C241.970901,544.312561 240.974380,545.340027 233.585495,546.042725 
	C232.692429,546.127625 231.846283,546.705933 230.978394,547.055542 
z"/>
<path fill="#CD2D6F" opacity="1.000000" stroke="none" 
	d="
M138.608078,355.899414 
	C148.427643,331.198029 165.428513,312.636169 187.975662,299.096771 
	C239.666214,268.056976 307.022552,277.088013 348.735992,320.680786 
	C360.604370,333.083893 369.400726,347.511841 374.045593,364.538483 
	C372.854462,365.608154 371.912903,366.184601 371.080872,366.890167 
	C368.289642,369.257019 365.537445,371.669922 362.556610,373.764404 
	C359.945221,366.774414 358.476654,359.553284 355.000488,353.481537 
	C330.793549,311.200165 293.692963,291.853333 245.493896,295.062042 
	C208.926193,297.496399 180.127197,314.775879 159.525391,345.295532 
	C157.315872,348.568726 155.253021,351.940887 152.931732,354.981079 
	C148.030258,355.096497 143.319168,355.497955 138.608078,355.899414 
z"/>
<path fill="#EB3C49" opacity="1.000000" stroke="none" 
	d="
M421.657837,514.833557 
	C430.284454,495.571655 438.973267,476.337250 447.507172,457.034363 
	C450.933807,449.283539 454.176727,441.441681 457.181671,433.519257 
	C458.333466,430.482666 459.974304,429.605743 463.077576,429.686371 
	C466.706238,429.780609 470.352814,429.186035 474.813385,428.926941 
	C477.584351,429.650604 479.872345,429.909149 481.405945,431.121735 
	C483.909424,433.101288 485.921082,435.702881 488.190582,438.504669 
	C487.505676,454.608917 486.770447,470.250458 485.847107,486.178253 
	C471.184418,493.666656 456.839813,501.149323 442.175873,507.942719 
	C435.668945,510.957214 428.517029,512.579407 421.657837,514.833557 
z"/>
<path fill="#C62E6F" opacity="1.000000" stroke="none" 
	d="
M379.299377,425.126404 
	C373.513397,452.265747 356.449554,470.628540 333.166962,484.001190 
	C316.080933,493.814819 297.574921,499.346008 277.554565,500.913330 
	C276.713837,497.590210 276.550201,494.653931 275.851013,491.851227 
	C275.196442,489.227142 273.974579,486.744598 273.413208,484.105164 
	C295.748291,481.428436 316.480469,475.327423 334.689117,462.431335 
	C348.623840,452.562195 359.372681,440.110596 362.559998,422.741272 
	C363.867432,415.616302 363.898193,408.257080 364.842163,401.083618 
	C368.266296,404.878906 369.624237,409.953217 374.404053,412.468872 
	C375.057159,412.812592 374.245697,416.062103 374.004761,417.952545 
	C373.648499,420.748138 373.195923,423.531494 372.747284,426.571259 
	C375.593170,425.943695 377.446259,425.535034 379.299377,425.126404 
z"/>
<path fill="#CE316E" opacity="1.000000" stroke="none" 
	d="
M273.002380,484.199768 
	C273.974579,486.744598 275.196442,489.227142 275.851013,491.851227 
	C276.550201,494.653931 276.713837,497.590210 277.111084,500.874603 
	C278.121887,502.239594 279.132874,503.198151 280.024963,504.617249 
	C278.600250,509.478363 276.567657,512.330566 271.202423,510.193909 
	C269.979889,509.707001 268.111664,510.841370 266.194275,511.197754 
	C242.782700,501.690002 219.920776,491.671478 196.581558,482.926758 
	C180.734390,476.989197 164.217712,472.838501 148.000443,467.888733 
	C146.588638,465.685883 145.178482,463.482025 143.764618,461.280487 
	C142.183365,458.818329 140.598755,456.358337 139.008423,453.523804 
	C138.605453,451.056305 138.209671,448.962402 138.133148,446.344055 
	C142.475906,445.960449 146.498535,446.149780 150.523270,446.220245 
	C152.351273,446.252228 154.183411,446.048645 156.303421,446.120483 
	C161.624496,452.448364 166.469147,458.829193 174.817963,461.622131 
	C187.282425,466.317535 199.348663,471.106659 211.653412,475.174286 
	C222.496429,478.758728 233.441330,482.586426 244.649033,484.344482 
	C253.865799,485.790253 263.534180,484.357025 273.002380,484.199768 
z"/>
<path fill="#CD3451" opacity="1.000000" stroke="none" 
	d="
M421.293518,514.888794 
	C428.517029,512.579407 435.668945,510.957214 442.175873,507.942719 
	C456.839813,501.149323 471.184418,493.666656 486.162415,486.091797 
	C487.721313,484.940826 488.776825,484.162567 490.140686,483.318359 
	C500.779999,475.835205 511.110962,468.417999 521.754517,460.934937 
	C526.332825,456.292023 533.370361,453.734924 533.041870,445.809723 
	C538.527466,445.943329 544.020142,445.958801 549.494019,446.288147 
	C550.984802,446.377869 552.418762,447.412689 553.878784,448.013733 
	C553.184082,449.422638 552.781128,451.107178 551.750244,452.198547 
	C538.796082,465.913422 524.444763,477.976257 508.743134,488.454712 
	C477.337067,509.413483 443.070618,523.945007 406.412903,533.642456 
	C406.292603,528.563782 404.486359,524.833740 401.119324,521.667114 
	C402.560272,520.823914 403.807159,520.203674 405.054047,519.583374 
	C410.345764,518.036926 415.637482,516.490479 421.293518,514.888794 
z"/>
<path fill="#F2793F" opacity="1.000000" stroke="none" 
	d="
M341.849701,533.754944 
	C328.405426,525.008179 314.961151,516.261353 301.279449,507.360107 
	C307.389465,505.366364 313.516693,503.653931 319.428894,501.382019 
	C334.938049,495.422089 348.817474,486.856812 360.523804,474.923462 
	C361.467590,473.961395 363.006226,473.582886 364.674957,473.361359 
	C365.191528,476.603394 366.344482,479.955963 365.220276,482.132294 
	C361.523376,489.289154 362.873108,495.867950 365.237122,502.963074 
	C366.217865,505.906433 365.487640,509.780762 364.536499,512.930054 
	C362.695343,519.026245 362.060242,525.619446 357.584778,530.966919 
	C352.068329,531.929260 346.959015,532.842102 341.849701,533.754944 
z"/>
<path fill="#D0326A" opacity="1.000000" stroke="none" 
	d="
M266.540649,511.229523 
	C268.111664,510.841370 269.979889,509.707001 271.202423,510.193909 
	C276.567657,512.330566 278.600250,509.478363 280.256805,504.862122 
	C297.637115,514.527405 314.666626,524.408325 331.857544,535.046326 
	C332.026306,540.062805 332.033600,544.322205 332.040894,548.581543 
	C309.969452,549.260681 287.898895,550.388367 265.826172,550.433716 
	C254.427872,550.457092 243.025635,548.557861 231.301788,547.291382 
	C231.846283,546.705933 232.692429,546.127625 233.585495,546.042725 
	C240.974380,545.340027 241.970901,544.312561 242.436859,536.590820 
	C265.485962,538.639954 288.122009,538.962891 310.913269,536.943115 
	C309.396484,535.389099 307.778717,534.305603 306.085907,533.356018 
	C292.912292,525.966064 279.724243,518.601746 266.540649,511.229523 
z"/>
<path fill="#F37345" opacity="1.000000" stroke="none" 
	d="
M357.991943,530.917419 
	C362.060242,525.619446 362.695343,519.026245 364.536499,512.930054 
	C365.487640,509.780762 366.217865,505.906433 365.237122,502.963074 
	C362.873108,495.867950 361.523376,489.289154 365.220276,482.132294 
	C366.344482,479.955963 365.191528,476.603394 365.040344,473.434387 
	C370.359467,473.003754 375.719696,472.928192 381.593811,473.279419 
	C382.532562,474.184479 382.863861,474.880371 383.395935,475.108948 
	C395.000031,480.094330 395.097656,491.273682 396.540924,501.106964 
	C397.579132,508.180664 396.249817,515.601868 395.571716,522.900635 
	C382.775238,525.594604 370.383575,528.255981 357.991943,530.917419 
z"/>
<path fill="#CA2F71" opacity="1.000000" stroke="none" 
	d="
M156.013672,445.951935 
	C154.183411,446.048645 152.351273,446.252228 150.523270,446.220245 
	C146.498535,446.149780 142.475906,445.960449 138.048813,445.991333 
	C135.005966,439.430389 132.366730,432.697754 129.312500,424.906494 
	C125.552048,424.906494 120.640625,424.906494 115.349861,424.417786 
	C115.450478,423.333618 115.884468,422.268921 116.417648,422.216644 
	C120.851051,421.782349 122.450859,418.902405 123.433258,415.001160 
	C125.238571,414.087982 127.691856,413.304840 127.818237,412.244354 
	C129.096085,401.522217 129.993423,390.754761 131.303833,379.844543 
	C132.700928,378.112457 134.021606,376.642975 134.820129,374.930084 
	C135.678040,373.089722 136.666275,370.868958 133.617386,369.787994 
	C135.135345,365.330475 136.653290,360.872986 138.389664,356.157440 
	C143.319168,355.497955 148.030258,355.096497 152.933929,355.349213 
	C150.745728,365.670837 148.364975,375.338318 145.855530,385.402496 
	C144.345383,399.649994 143.880585,413.453949 147.857666,427.419952 
	C150.591843,433.855896 153.302765,439.903931 156.013672,445.951935 
z"/>
<path fill="#F47746" opacity="1.000000" stroke="none" 
	d="
M441.994843,411.618652 
	C434.355927,411.571564 427.215637,411.531189 420.075714,411.457581 
	C419.811279,411.454895 419.550140,411.128357 418.714172,410.569489 
	C421.784088,404.669250 424.847992,398.687958 427.999542,392.753265 
	C430.412109,388.210175 433.176758,383.837341 435.327972,379.177887 
	C436.860748,375.857941 438.831116,374.585266 442.548676,374.673004 
	C453.153839,374.923340 463.768738,374.760956 475.211914,374.760956 
	C472.617737,380.720001 470.324432,386.127136 467.915741,391.482361 
	C465.397217,397.081879 462.986786,402.750946 460.052429,408.129517 
	C459.179932,409.728760 456.791443,411.195068 454.937775,411.423157 
	C450.843628,411.926880 446.647858,411.604889 441.994843,411.618652 
z"/>
<path fill="#CB2F72" opacity="1.000000" stroke="none" 
	d="
M379.746521,425.097656 
	C377.446259,425.535034 375.593170,425.943695 372.747284,426.571259 
	C373.195923,423.531494 373.648499,420.748138 374.004761,417.952545 
	C374.245697,416.062103 375.057159,412.812592 374.404053,412.468872 
	C369.624237,409.953217 368.266296,404.878906 364.736511,400.626892 
	C364.152832,395.040863 364.007263,389.990784 363.934082,384.521240 
	C363.594452,380.756256 363.182373,377.410706 362.770325,374.065186 
	C365.537445,371.669922 368.289642,369.257019 371.080872,366.890167 
	C371.912903,366.184601 372.854462,365.608154 374.141663,364.921814 
	C375.179443,366.503601 375.821442,368.136169 376.727417,370.388672 
	C377.660126,374.006134 378.328827,377.003662 378.997986,380.450562 
	C379.665649,388.144318 380.734528,395.378815 380.913391,402.635254 
	C381.248566,416.237061 381.034271,416.242340 394.592560,414.982910 
	C400.128845,414.468658 401.928101,412.598816 401.986145,407.063232 
	C402.047241,401.233063 402.212006,395.390717 401.910095,389.575592 
	C401.760345,386.691101 400.665710,383.855621 400.014130,380.590027 
	C402.124573,375.787201 406.072632,379.015594 408.989929,378.003937 
	C409.739746,380.125610 411.083527,382.232605 411.136230,384.371460 
	C411.360504,393.468658 411.471191,402.586243 411.101776,411.675171 
	C410.785400,419.460480 404.914124,424.754028 397.082825,424.952789 
	C391.455750,425.095612 385.823578,425.037445 379.746521,425.097656 
z"/>
<path fill="#D02E73" opacity="1.000000" stroke="none" 
	d="
M123.001221,415.002441 
	C122.450859,418.902405 120.851051,421.782349 116.417648,422.216644 
	C115.884468,422.268921 115.450478,423.333618 114.884315,424.350281 
	C103.583984,425.373047 97.118324,419.469818 96.970222,408.369781 
	C96.885857,402.046783 96.959846,395.721527 96.975494,389.397339 
	C97.009911,375.485687 101.007927,370.907104 115.625404,369.029724 
	C115.625404,361.756958 115.625404,354.333923 116.106575,346.448853 
	C121.675316,345.009613 123.038734,341.114655 124.020195,336.760590 
	C125.135010,331.814911 124.230667,325.937225 130.003357,323.359741 
	C130.337708,325.123749 130.666748,326.523132 130.995758,327.922485 
	C130.073029,329.449738 128.382385,330.961243 128.350708,332.506775 
	C128.125259,343.499329 128.353516,354.500702 128.178802,365.495148 
	C128.122040,369.067200 129.410095,370.383911 133.223267,369.804749 
	C136.666275,370.868958 135.678040,373.089722 134.820129,374.930084 
	C134.021606,376.642975 132.700928,378.112457 130.835526,379.844543 
	C124.100525,380.000610 118.139977,380.025818 112.179749,379.992462 
	C108.698013,379.972961 106.984406,381.610565 106.995003,385.118439 
	C107.019005,393.065582 106.748528,401.027130 107.194008,408.949310 
	C107.296196,410.766571 109.523903,413.515137 111.263504,413.972961 
	C115.007072,414.958252 119.069374,414.732513 123.001221,415.002441 
z"/>
<path fill="#F06746" opacity="1.000000" stroke="none" 
	d="
M395.976562,522.868042 
	C396.249817,515.601868 397.579132,508.180664 396.540924,501.106964 
	C395.097656,491.273682 395.000031,480.094330 383.395935,475.108948 
	C382.863861,474.880371 382.532562,474.184479 382.055145,473.364990 
	C398.114349,473.023712 414.226135,473.023712 431.032776,473.023712 
	C423.944397,489.349792 416.930786,505.315704 405.390167,519.311035 
	C403.807159,520.203674 402.560272,520.823914 400.756927,521.693542 
	C398.792480,522.251221 397.384521,522.559631 395.976562,522.868042 
z"/>
<path fill="#D13258" opacity="1.000000" stroke="none" 
	d="
M395.571716,522.900635 
	C397.384521,522.559631 398.792480,522.251221 400.562866,521.916504 
	C404.486359,524.833740 406.292603,528.563782 406.014038,533.653564 
	C390.539490,537.687622 375.114502,541.568420 359.555542,544.805420 
	C350.802460,546.626404 341.828278,547.384644 332.497314,548.601685 
	C332.033600,544.322205 332.026306,540.062805 332.035645,535.327637 
	C335.034912,534.500610 338.017487,534.149414 341.424896,533.776550 
	C346.959015,532.842102 352.068329,531.929260 357.584778,530.966919 
	C370.383575,528.255981 382.775238,525.594604 395.571716,522.900635 
z"/>
<path fill="#EF6247" opacity="1.000000" stroke="none" 
	d="
M407.757324,428.900635 
	C409.571198,427.345703 411.385071,425.790771 413.901428,424.098022 
	C416.692017,423.211884 418.780121,422.463501 420.868195,421.715118 
	C421.123383,421.269196 421.378540,420.823242 421.633728,420.377319 
	C424.598114,423.934143 427.948395,427.242767 430.434448,431.107300 
	C433.970245,436.603607 437.468079,441.823151 444.450684,443.180237 
	C441.745453,449.394958 439.198730,455.687531 436.214355,461.765198 
	C435.538422,463.141693 433.409454,464.456512 431.833099,464.610657 
	C427.898499,464.995331 423.897064,464.696564 419.469055,464.163879 
	C420.039673,456.454865 421.596619,449.244507 417.652802,442.327545 
	C416.527130,440.353241 415.825043,438.141632 414.856384,436.072662 
	C413.347107,432.848999 412.645691,428.791779 407.757324,428.900635 
z"/>
<path fill="#D42E77" opacity="1.000000" stroke="none" 
	d="
M409.011963,377.652039 
	C406.072632,379.015594 402.124573,375.787201 399.656372,380.434631 
	C392.521210,380.458527 385.759369,380.229858 378.997559,380.001160 
	C378.328827,377.003662 377.660126,374.006134 376.988953,370.603821 
	C379.408478,370.244202 380.473206,369.223663 380.428406,366.639862 
	C380.227539,355.052307 380.173676,343.462219 380.382324,331.417877 
	C380.697906,330.962708 380.975861,330.902863 381.245728,331.111420 
	C383.597870,333.524353 385.680206,335.728699 387.602173,337.763336 
	C389.564545,334.890991 391.235168,332.445648 392.905823,330.000336 
	C392.905823,342.892639 392.905823,355.784943 392.905823,369.019470 
	C399.435883,369.894928 405.660828,370.992462 409.011963,377.652039 
z"/>
<path fill="#EB3434" opacity="1.000000" stroke="none" 
	d="
M511.299377,321.997223 
	C514.882202,320.593750 517.328003,322.162354 519.420349,324.961395 
	C520.033630,325.781830 521.044128,326.305267 522.204102,326.974365 
	C524.333191,347.358459 526.130798,367.732910 527.502563,388.544342 
	C526.334106,388.708527 525.041565,388.574524 524.932373,388.141876 
	C523.609436,382.899353 519.492981,384.054260 515.714722,383.681488 
	C515.414368,381.222046 515.278870,379.111664 515.478027,376.929443 
	C517.566467,375.162018 517.677551,373.800354 514.912964,372.595306 
	C513.631409,355.459686 512.465393,338.728455 511.299377,321.997223 
z"/>
<path fill="#F06A46" opacity="1.000000" stroke="none" 
	d="
M407.364624,428.952759 
	C412.645691,428.791779 413.347107,432.848999 414.856384,436.072662 
	C415.825043,438.141632 416.527130,440.353241 417.652802,442.327545 
	C421.596619,449.244507 420.039673,456.454865 419.021210,464.042206 
	C411.937286,464.475403 404.847778,464.522064 397.397766,464.056824 
	C400.531860,457.002594 397.925232,450.740204 396.304443,444.372864 
	C395.807892,442.422302 395.986572,440.253723 396.116272,438.201447 
	C396.281708,435.583679 396.711151,432.982635 397.026764,430.374359 
	C400.341797,429.917847 403.656860,429.461334 407.364624,428.952759 
z"/>
<path fill="#EB383C" opacity="1.000000" stroke="none" 
	d="
M488.140259,438.041992 
	C485.921082,435.702881 483.909424,433.101288 481.405945,431.121735 
	C479.872345,429.909149 477.584351,429.650604 475.233093,428.953186 
	C475.187805,427.170654 475.744629,425.412628 475.870209,423.624298 
	C477.081696,406.374786 478.220703,389.120148 479.883362,371.433624 
	C481.923370,371.333923 483.460480,371.667572 485.105103,372.260193 
	C485.474670,373.013611 485.736725,373.508026 485.999359,374.407349 
	C485.999573,377.873993 485.999176,380.935791 485.998352,384.428345 
	C486.331573,387.573578 486.665192,390.287994 487.004944,393.365051 
	C487.958618,394.483521 488.906097,395.239410 489.922729,396.328247 
	C489.977997,397.113800 489.964050,397.566437 489.728333,398.173798 
	C489.695740,398.895813 489.884857,399.463135 490.161774,400.490509 
	C489.546448,413.314392 488.843323,425.678192 488.140259,438.041992 
z"/>
<path fill="#F2764C" opacity="1.000000" stroke="none" 
	d="
M396.583191,430.277954 
	C396.711151,432.982635 396.281708,435.583679 396.116272,438.201447 
	C395.986572,440.253723 395.807892,442.422302 396.304443,444.372864 
	C397.925232,450.740204 400.531860,457.002594 396.992554,463.964447 
	C388.230713,464.384003 379.513580,464.384003 370.418976,464.384003 
	C373.240417,459.832672 376.200928,455.666473 378.511719,451.166626 
	C381.080048,446.165253 383.548828,441.005737 385.138153,435.641663 
	C386.471252,431.142181 388.629333,429.328400 393.153748,430.109467 
	C394.124268,430.277008 395.143066,430.164856 396.583191,430.277954 
z"/>
<path fill="#EA3539" opacity="1.000000" stroke="none" 
	d="
M515.879639,384.030518 
	C519.492981,384.054260 523.609436,382.899353 524.932373,388.141876 
	C525.041565,388.574524 526.334106,388.708527 527.448669,388.988647 
	C528.967712,403.027008 530.114868,417.058014 530.828613,431.494873 
	C527.262695,428.648560 523.243958,428.803925 519.114014,428.565613 
	C518.559814,424.082306 518.108032,420.026398 517.713257,415.534729 
	C517.140076,404.742828 516.509827,394.386688 515.879639,384.030518 
z"/>
<path fill="#ED614B" opacity="1.000000" stroke="none" 
	d="
M444.674744,442.934540 
	C437.468079,441.823151 433.970245,436.603607 430.434448,431.107300 
	C427.948395,427.242767 424.598114,423.934143 421.633728,420.377319 
	C421.378540,420.823242 421.123383,421.269196 420.868195,421.715118 
	C418.780121,422.463501 416.692017,423.211884 414.180908,423.934998 
	C414.718567,420.236908 417.124634,419.200897 420.815826,419.271729 
	C430.956421,419.466400 441.103912,419.291992 451.248657,419.294495 
	C452.347412,419.294769 453.446136,419.496521 455.168671,419.666260 
	C451.609558,427.644958 448.254211,435.166901 444.674744,442.934540 
z"/>
<path fill="#D62C7C" opacity="1.000000" stroke="none" 
	d="
M129.998047,322.995117 
	C124.230667,325.937225 125.135010,331.814911 124.020195,336.760590 
	C123.038734,341.114655 121.675316,345.009613 116.203865,345.987488 
	C115.760139,343.305084 115.700287,340.621948 116.043564,337.267212 
	C116.270775,334.720490 116.094856,332.845398 115.918938,330.970337 
	C115.642281,330.555817 115.365623,330.141327 115.047714,329.125488 
	C114.237602,325.502747 113.539917,322.461060 112.683884,319.464569 
	C111.261414,314.485352 114.695160,308.571442 119.896187,307.193146 
	C125.810944,305.625702 128.775742,307.357849 130.025269,313.854126 
	C130.590103,316.790741 130.041489,319.941498 129.998047,322.995117 
z"/>
<path fill="#DB2C77" opacity="1.000000" stroke="none" 
	d="
M392.983948,329.809570 
	C391.235168,332.445648 389.564545,334.890991 387.602173,337.763336 
	C385.680206,335.728699 383.597870,333.524353 381.251099,330.723846 
	C380.265411,327.952698 379.658081,325.731720 378.802002,323.611145 
	C376.062927,316.825897 379.281342,307.521912 384.971588,307.211884 
	C387.968506,307.048584 392.728271,307.960876 393.753174,309.922760 
	C395.460327,313.190613 395.128296,317.700897 395.027435,321.672119 
	C394.963318,324.198578 393.765717,326.696228 393.076355,329.206787 
	C393.076355,329.206787 393.062042,329.618835 392.983948,329.809570 
z"/>
<path fill="#CA2F71" opacity="1.000000" stroke="none" 
	d="
M393.440308,329.159393 
	C393.765717,326.696228 394.963318,324.198578 395.027435,321.672119 
	C395.128296,317.700897 395.460327,313.190613 393.753174,309.922760 
	C392.728271,307.960876 387.968506,307.048584 384.971588,307.211884 
	C379.281342,307.521912 376.062927,316.825897 378.802002,323.611145 
	C379.658081,325.731720 380.265411,327.952698 380.981262,330.515289 
	C380.975861,330.902863 380.697906,330.962708 380.556519,330.976715 
	C379.165833,329.991974 377.940033,328.961945 376.663147,327.999786 
	C370.690460,323.499298 369.714661,313.728302 374.678314,307.962677 
	C380.456238,301.251343 391.678619,300.571198 397.875610,306.556854 
	C403.444183,311.935516 403.416809,322.262848 397.710175,327.141113 
	C396.633423,328.061554 395.117462,328.468231 393.440308,329.159393 
z"/>
<path fill="#CC3477" opacity="1.000000" stroke="none" 
	d="
M130.003357,323.359741 
	C130.041489,319.941498 130.590103,316.790741 130.025269,313.854126 
	C128.775742,307.357849 125.810944,305.625702 119.896187,307.193146 
	C114.695160,308.571442 111.261414,314.485352 112.683884,319.464569 
	C113.539917,322.461060 114.237602,325.502747 114.955811,328.892822 
	C108.473534,326.703674 105.315117,319.947815 107.286644,312.965454 
	C109.264168,305.961853 116.701469,301.145416 123.897293,302.454376 
	C129.628571,303.497040 134.345062,306.239777 136.076630,312.187744 
	C137.831436,318.215576 136.899704,323.740784 131.342102,327.936035 
	C130.666748,326.523132 130.337708,325.123749 130.003357,323.359741 
z"/>
<path fill="#EA3941" opacity="1.000000" stroke="none" 
	d="
M519.216431,428.993042 
	C523.243958,428.803925 527.262695,428.648560 530.762695,431.953613 
	C531.633789,436.376648 532.137207,440.746765 532.841187,445.463318 
	C533.370361,453.734924 526.332825,456.292023 521.710815,460.476074 
	C520.641907,449.719727 519.929138,439.356384 519.216431,428.993042 
z"/>
<path fill="#F28151" opacity="1.000000" stroke="none" 
	d="
M423.379852,385.479919 
	C422.060699,387.960541 420.926544,390.124634 419.542084,392.766235 
	C418.289429,386.324005 417.160187,380.516449 415.990204,374.499329 
	C419.980286,374.499329 424.192688,374.499329 429.236450,374.499329 
	C427.202179,378.324249 425.383514,381.743805 423.379852,385.479919 
z"/>
<path fill="#E83435" opacity="1.000000" stroke="none" 
	d="
M484.997559,372.001221 
	C483.460480,371.667572 481.923370,371.333923 480.050842,371.003479 
	C479.996460,366.254639 480.277588,361.502594 480.728058,356.375793 
	C484.410400,357.585907 487.923340,359.170685 491.875336,361.302734 
	C492.202881,363.233490 492.091431,364.617004 491.615356,366.039856 
	C487.752319,366.560059 485.762878,368.634338 484.997559,372.001221 
z"/>
<path fill="#D02E73" opacity="1.000000" stroke="none" 
	d="
M115.815422,331.395874 
	C116.094856,332.845398 116.270775,334.720490 116.142799,336.829987 
	C115.796570,335.316742 115.754234,333.569092 115.815422,331.395874 
z"/>
<path fill="#E83435" opacity="1.000000" stroke="none" 
	d="
M483.171326,318.261597 
	C483.609070,318.238525 483.676422,318.499878 483.317505,318.896729 
	C483.175873,318.979767 483.085571,318.493500 483.171326,318.261597 
z"/>
<path fill="#FEFBFB" opacity="1.000000" stroke="none" 
	d="
M491.979950,366.000519 
	C492.091431,364.617004 492.202881,363.233490 492.220459,361.442566 
	C492.647552,352.277802 493.193115,343.521820 493.682434,334.762726 
	C494.163605,326.149841 494.587646,317.533752 495.058838,308.033081 
	C495.285797,302.096497 495.490631,297.045959 495.695465,291.995392 
	C496.492584,279.738129 497.289673,267.480896 498.091553,255.150482 
	C500.606476,254.288315 502.932495,253.490921 505.786896,252.512375 
	C507.575775,275.673401 509.331299,298.402740 511.193115,321.564636 
	C512.465393,338.728455 513.631409,355.459686 514.833313,372.992126 
	C514.960571,374.862671 515.052002,375.931946 515.143372,377.001251 
	C515.278870,379.111664 515.414368,381.222046 515.714783,383.681488 
	C516.509827,394.386688 517.140076,404.742828 517.389893,415.613434 
	C516.504333,416.758728 515.811829,417.314178 515.523010,418.032074 
	C512.488464,425.576508 507.447693,431.338715 501.271210,436.666901 
	C497.813812,439.649414 495.323883,444.661804 494.161987,449.210205 
	C491.644104,459.066986 490.185944,469.201080 488.506500,479.257141 
	C488.294983,480.523712 489.359192,482.003357 489.832336,483.384277 
	C488.776825,484.162567 487.721313,484.940826 486.350525,485.805573 
	C486.770447,470.250458 487.505676,454.608917 488.190552,438.504669 
	C488.843323,425.678192 489.546448,413.314392 490.294098,400.308350 
	C490.209137,399.117065 490.079620,398.568085 489.950104,398.019073 
	C489.964050,397.566437 489.977997,397.113800 489.987244,395.955780 
	C489.934479,394.498993 489.886353,393.747589 489.905640,392.551697 
	C490.262390,389.512604 490.551758,386.917999 490.945221,383.973206 
	C490.932739,382.669647 490.816101,381.716309 490.934723,380.600220 
	C491.102570,379.296082 491.035126,378.154724 490.990051,376.635010 
	C490.958099,375.503265 490.903809,374.749878 490.916595,373.590668 
	C491.315765,370.790070 491.647858,368.395294 491.979950,366.000519 
z"/>
<path fill="#FDF9F9" opacity="1.000000" stroke="none" 
	d="
M510.620850,144.466888 
	C511.168243,159.686417 511.669708,174.459305 512.065125,189.235046 
	C512.113220,191.033630 511.707672,192.873383 511.313354,194.649872 
	C509.429504,203.137207 507.003937,204.839905 498.661072,202.823959 
	C497.329193,202.502136 495.708191,200.077667 495.599915,198.528854 
	C494.918488,188.780914 493.418091,178.875183 494.455627,169.266449 
	C496.683075,148.638138 500.281799,128.157715 503.345825,107.620735 
	C503.434814,107.024445 503.824493,106.473015 505.054626,105.888077 
	C506.883972,118.599083 508.713348,131.310089 510.620850,144.466888 
z"/>
<path fill="#FDF9F9" opacity="1.000000" stroke="none" 
	d="
M554.134521,252.853363 
	C568.539368,264.426422 582.017883,276.465088 593.565674,290.717346 
	C565.825317,279.982300 539.107849,267.640869 517.842957,246.203491 
	C520.794189,241.665344 522.934753,238.373810 525.208496,234.877472 
	C536.225830,238.480911 544.806030,245.939468 554.134521,252.853363 
z"/>
<path fill="#FDF9F9" opacity="1.000000" stroke="none" 
	d="
M420.979736,274.967072 
	C414.601593,277.016022 408.602661,278.966034 402.589508,280.871002 
	C401.987091,281.061859 401.298157,280.979553 400.482391,281.035522 
	C413.999756,266.218628 463.419952,231.342209 477.009613,233.234879 
	C478.214142,235.535843 479.610260,237.807877 480.579315,240.249451 
	C480.964142,241.218994 480.823975,242.917984 480.191864,243.672379 
	C478.297729,245.932861 476.327637,248.338348 473.882721,249.894974 
	C457.416443,260.378754 439.711884,268.317505 420.979736,274.967072 
z"/>
<path fill="#FEFAFA" opacity="1.000000" stroke="none" 
	d="
M507.119446,241.437714 
	C500.544800,243.922699 494.618164,242.611862 490.158905,238.294189 
	C485.970947,234.239212 484.528961,228.576630 486.301880,222.615463 
	C488.170593,216.332291 494.204315,211.876404 500.893280,211.743790 
	C508.164124,211.599655 513.961243,215.767960 516.319824,222.836060 
	C518.329712,228.859222 516.017395,235.515411 510.474304,239.517792 
	C509.538666,240.193375 508.478149,240.695953 507.119446,241.437714 
z"/>
<path fill="#E83435" opacity="1.000000" stroke="none" 
	d="
M495.354248,292.089172 
	C495.490631,297.045959 495.285797,302.096497 494.987549,307.574097 
	C493.992401,305.625946 492.300354,303.220917 492.388763,300.883179 
	C492.499512,297.954163 494.071655,295.080475 495.354248,292.089172 
z"/>
<path fill="#FEFCFD" opacity="1.000000" stroke="none" 
	d="
M266.194275,511.197754 
	C279.724243,518.601746 292.912292,525.966064 306.085907,533.356018 
	C307.778717,534.305603 309.396484,535.389099 310.913269,536.943115 
	C288.122009,538.962891 265.485962,538.639954 242.437012,536.177368 
	C210.335922,532.365356 179.423264,525.378540 149.573105,513.961243 
	C114.617241,500.591034 82.526276,482.289276 53.669151,458.396790 
	C53.154053,457.970306 52.533546,457.671082 52.198181,456.771057 
	C84.607056,455.219116 116.022255,460.579254 147.602524,467.914185 
	C164.217712,472.838501 180.734390,476.989197 196.581558,482.926758 
	C219.920776,491.671478 242.782700,501.690002 266.194275,511.197754 
z"/>
<path fill="#FDF8FA" opacity="1.000000" stroke="none" 
	d="
M362.556580,373.764404 
	C363.182373,377.410706 363.594452,380.756256 363.559540,384.531738 
	C362.624146,385.058380 362.135742,385.155090 361.441162,384.955536 
	C359.844269,380.440277 358.453583,376.221252 357.326721,371.801147 
	C356.842499,369.272949 356.386597,366.798248 355.298279,364.642914 
	C348.882843,351.937195 340.640808,340.686951 329.882446,331.155792 
	C311.252411,314.650909 289.457886,305.725647 264.911377,304.150757 
	C236.727982,302.342529 210.479401,308.585480 187.378021,325.744537 
	C173.388596,336.135498 162.145035,348.833069 154.355713,364.429810 
	C152.908447,367.327759 152.603027,370.795929 151.752838,374.361450 
	C150.599991,378.225006 149.464951,381.728088 147.944870,385.145325 
	C147.034622,385.041534 146.509415,385.023651 145.984222,385.005768 
	C148.364975,375.338318 150.745728,365.670837 153.124313,355.635254 
	C155.253021,351.940887 157.315872,348.568726 159.525391,345.295532 
	C180.127197,314.775879 208.926193,297.496399 245.493896,295.062042 
	C293.692963,291.853333 330.793549,311.200165 355.000488,353.481537 
	C358.476654,359.553284 359.945221,366.774414 362.556580,373.764404 
z"/>
<path fill="#F1BBD6" opacity="1.000000" stroke="none" 
	d="
M361.647308,385.251770 
	C362.135742,385.155090 362.624146,385.058380 363.487122,384.951172 
	C364.007263,389.990784 364.152832,395.040863 364.404053,400.547668 
	C363.898193,408.257080 363.867432,415.616302 362.559998,422.741272 
	C359.372681,440.110596 348.623840,452.562195 334.689117,462.431335 
	C316.480469,475.327423 295.748291,481.428436 273.413208,484.105164 
	C263.534180,484.357025 253.865799,485.790253 244.649033,484.344482 
	C233.441330,482.586426 222.496429,478.758728 211.653412,475.174286 
	C199.348663,471.106659 187.282425,466.317535 175.107269,461.415955 
	C174.737976,460.129974 174.567154,459.098602 173.979858,458.436890 
	C168.410751,452.162140 162.628387,446.071045 157.203461,439.675934 
	C153.817474,435.684387 150.940063,431.261383 147.834412,427.032013 
	C143.880585,413.453949 144.345383,399.649994 145.855530,385.402496 
	C146.509415,385.023651 147.034622,385.041534 147.918854,385.593628 
	C148.523560,391.417999 148.769226,396.708191 148.996582,402.398529 
	C153.028107,425.146088 173.990280,442.607605 197.465698,442.705627 
	C235.616165,442.864960 273.769104,442.931488 311.918335,442.660156 
	C327.893097,442.546539 341.330078,436.363770 351.417969,423.094788 
	C360.659180,411.836060 362.959656,399.021667 361.647308,385.251770 
z"/>
<path fill="#F5CCE1" opacity="1.000000" stroke="none" 
	d="
M147.857666,427.419952 
	C150.940063,431.261383 153.817474,435.684387 157.203461,439.675934 
	C162.628387,446.071045 168.410751,452.162140 173.979858,458.436890 
	C174.567154,459.098602 174.737976,460.129974 174.812729,461.195984 
	C166.469147,458.829193 161.624496,452.448364 156.303436,446.120483 
	C153.302765,439.903931 150.591843,433.855896 147.857666,427.419952 
z"/>
<path fill="#FDECE8" opacity="1.000000" stroke="none" 
	d="
M490.140717,483.318359 
	C489.359192,482.003357 488.294983,480.523712 488.506500,479.257141 
	C490.185944,469.201080 491.644104,459.066986 494.161987,449.210205 
	C495.323883,444.661804 497.813812,439.649414 501.271210,436.666901 
	C507.447693,431.338715 512.488464,425.576508 515.523010,418.032074 
	C515.811829,417.314178 516.504333,416.758728 517.332825,416.049194 
	C518.108032,420.026398 518.559814,424.082306 519.114014,428.565613 
	C519.929138,439.356384 520.641907,449.719727 521.398254,460.541931 
	C511.110962,468.417999 500.779999,475.835205 490.140717,483.318359 
z"/>
<path fill="#DB2C76" opacity="1.000000" stroke="none" 
	d="
M123.433258,415.001160 
	C119.069374,414.732513 115.007072,414.958252 111.263504,413.972961 
	C109.523903,413.515137 107.296196,410.766571 107.194008,408.949310 
	C106.748528,401.027130 107.019005,393.065582 106.995003,385.118439 
	C106.984406,381.610565 108.698013,379.972961 112.179749,379.992462 
	C118.139977,380.025818 124.100525,380.000610 130.529251,380.000000 
	C129.993423,390.754761 129.096085,401.522217 127.818237,412.244354 
	C127.691856,413.304840 125.238571,414.087982 123.433258,415.001160 
z"/>
<path fill="#DB2C77" opacity="1.000000" stroke="none" 
	d="
M378.998016,380.450531 
	C385.759369,380.229858 392.521210,380.458527 399.640778,380.842590 
	C400.665710,383.855621 401.760345,386.691101 401.910095,389.575592 
	C402.212006,395.390717 402.047241,401.233063 401.986145,407.063232 
	C401.928101,412.598816 400.128845,414.468658 394.592560,414.982910 
	C381.034271,416.242340 381.248566,416.237061 380.913391,402.635254 
	C380.734528,395.378815 379.665649,388.144318 378.998016,380.450531 
z"/>
<path fill="#EA3539" opacity="1.000000" stroke="none" 
	d="
M515.478027,376.929443 
	C515.052002,375.931946 514.960571,374.862671 514.948853,373.396545 
	C517.677551,373.800354 517.566467,375.162018 515.478027,376.929443 
z"/>
<path fill="#E83131" opacity="1.000000" stroke="none" 
	d="
M491.615356,366.039856 
	C491.647858,368.395294 491.315765,370.790070 490.512543,373.592102 
	C488.693878,374.000366 487.346344,374.001404 485.998779,374.002441 
	C485.736725,373.508026 485.474670,373.013611 485.105103,372.260193 
	C485.762878,368.634338 487.752319,366.560059 491.615356,366.039856 
z"/>
<path fill="#E83435" opacity="1.000000" stroke="none" 
	d="
M485.999359,374.407349 
	C487.346344,374.001404 488.693878,374.000366 490.445496,373.997925 
	C490.903809,374.749878 490.958099,375.503265 490.702972,376.924622 
	C490.495544,378.649353 490.597504,379.706177 490.699463,380.762970 
	C490.816101,381.716309 490.932739,382.669647 490.460297,383.866638 
	C488.580414,384.072693 487.289612,384.035126 485.998779,383.997559 
	C485.999176,380.935791 485.999573,377.873993 485.999359,374.407349 
z"/>
<path fill="#E83131" opacity="1.000000" stroke="none" 
	d="
M485.998352,384.428345 
	C487.289612,384.035126 488.580414,384.072693 490.356171,384.216827 
	C490.551758,386.917999 490.262390,389.512604 489.550720,392.553040 
	C488.418488,393.000061 487.708649,393.001282 486.998779,393.002441 
	C486.665192,390.287994 486.331573,387.573578 485.998352,384.428345 
z"/>
<path fill="#E83435" opacity="1.000000" stroke="none" 
	d="
M487.004944,393.365051 
	C487.708649,393.001282 488.418488,393.000061 489.483276,392.997528 
	C489.886353,393.747589 489.934479,394.498993 489.918091,395.622864 
	C488.906097,395.239410 487.958618,394.483521 487.004944,393.365051 
z"/>
<path fill="#E83131" opacity="1.000000" stroke="none" 
	d="
M489.728333,398.173798 
	C490.079620,398.568085 490.209137,399.117065 490.206329,399.848267 
	C489.884857,399.463135 489.695740,398.895813 489.728333,398.173798 
z"/>
<path fill="#E83131" opacity="1.000000" stroke="none" 
	d="
M490.934723,380.600220 
	C490.597504,379.706177 490.495544,378.649353 490.680634,377.302979 
	C491.035126,378.154724 491.102570,379.296082 490.934723,380.600220 
z"/>
<path fill="#F0B9D5" opacity="1.000000" stroke="none" 
	d="
M151.770599,374.000946 
	C152.603027,370.795929 152.908447,367.327759 154.355713,364.429810 
	C162.145035,348.833069 173.388596,336.135498 187.378021,325.744537 
	C210.479401,308.585480 236.727982,302.342529 264.911377,304.150757 
	C289.457886,305.725647 311.252411,314.650909 329.882446,331.155792 
	C340.640808,340.686951 348.882843,351.937195 355.298279,364.642914 
	C356.386597,366.798248 356.842499,369.272949 357.014832,371.656738 
	C355.841309,370.720459 355.291626,369.694611 354.638367,368.739624 
	C345.769867,355.774292 333.916687,347.597198 317.601135,345.843628 
	C314.226990,345.507141 311.253815,345.088867 308.280853,345.090302 
	C272.524445,345.107697 236.768036,345.187256 200.578201,345.169250 
	C197.096939,345.367645 194.049088,345.647400 190.588531,345.903870 
	C179.861359,347.564240 170.685806,351.801025 163.406754,359.267639 
	C159.061966,363.724365 155.618973,369.060242 151.770599,374.000946 
z"/>
<path fill="#C72D75" opacity="1.000000" stroke="none" 
	d="
M318.002258,345.956848 
	C333.916687,347.597198 345.769867,355.774292 354.638367,368.739624 
	C355.291626,369.694611 355.841309,370.720459 356.750977,371.857788 
	C358.453583,376.221252 359.844269,380.440277 361.441162,384.955536 
	C362.959656,399.021667 360.659180,411.836060 351.266846,422.768219 
	C347.088013,419.448273 345.931244,423.042206 344.059723,425.132050 
	C342.532562,426.837372 340.843994,428.450714 339.010010,429.812622 
	C337.452301,430.969391 335.674438,432.006042 333.832764,432.562317 
	C331.146851,433.373657 328.044128,434.619781 325.648865,433.905060 
	C324.188293,433.469208 323.722290,429.700378 323.087158,427.245941 
	C325.170563,426.228424 327.006683,425.453064 328.777405,424.549469 
	C344.473236,416.539856 352.163696,398.513916 345.589142,382.399628 
	C343.128143,376.367706 337.733978,371.532471 333.960388,365.977112 
	C332.076019,363.555847 330.002258,361.208252 327.720245,359.084442 
	C323.654510,355.300659 318.542969,352.335785 318.002258,345.956848 
z"/>
<path fill="#C22B75" opacity="1.000000" stroke="none" 
	d="
M151.752823,374.361450 
	C155.618973,369.060242 159.061966,363.724365 163.406754,359.267639 
	C170.685806,351.801025 179.861359,347.564240 190.588974,346.304230 
	C190.716202,350.973175 190.430252,355.218506 189.850677,359.641602 
	C169.284286,366.896271 160.001297,381.005341 162.089935,400.885834 
	C157.414856,401.284454 153.214874,401.641418 149.014893,401.998383 
	C148.769226,396.708191 148.523560,391.417999 148.303894,385.679504 
	C149.464951,381.728088 150.599991,378.225006 151.752823,374.361450 
z"/>
<path fill="#CB3075" opacity="1.000000" stroke="none" 
	d="
M148.996582,402.398529 
	C153.214874,401.641418 157.414856,401.284454 162.245621,401.197449 
	C167.078171,417.870422 181.601135,429.054138 199.310974,429.108368 
	C235.721588,429.219849 272.132996,429.213715 308.543427,429.079468 
	C313.300751,429.061920 318.054260,428.004456 322.809540,427.428650 
	C323.722290,429.700378 324.188293,433.469208 325.648865,433.905060 
	C328.044128,434.619781 331.146851,433.373657 333.832764,432.562317 
	C335.674438,432.006042 337.452301,430.969391 339.010010,429.812622 
	C340.843994,428.450714 342.532562,426.837372 344.059723,425.132050 
	C345.931244,423.042206 347.088013,419.448273 350.991333,422.975372 
	C341.330078,436.363770 327.893097,442.546539 311.918335,442.660156 
	C273.769104,442.931488 235.616165,442.864960 197.465698,442.705627 
	C173.990280,442.607605 153.028107,425.146088 148.996582,402.398529 
z"/>
<path fill="#CA2970" opacity="1.000000" stroke="none" 
	d="
M317.601135,345.843628 
	C318.542969,352.335785 323.654510,355.300659 327.720245,359.084442 
	C330.002258,361.208252 332.076019,363.555847 333.637939,365.883148 
	C325.493286,360.466705 316.975494,358.372375 307.745300,358.382111 
	C270.858887,358.420929 233.972351,358.373322 197.062561,357.947845 
	C197.499069,356.058014 197.942993,354.572906 198.422180,353.099213 
	C199.274078,350.479370 200.147324,347.866425 201.011627,345.250610 
	C236.768036,345.187256 272.524445,345.107697 308.280853,345.090302 
	C311.253815,345.088867 314.226990,345.507141 317.601135,345.843628 
z"/>
<path fill="#C72D75" opacity="1.000000" stroke="none" 
	d="
M200.578217,345.169250 
	C200.147324,347.866425 199.274078,350.479370 198.422180,353.099213 
	C197.942993,354.572906 197.499069,356.058014 196.713989,358.104492 
	C194.307251,358.935242 192.225769,359.199524 190.144302,359.463837 
	C190.430252,355.218506 190.716202,350.973175 191.001709,346.327515 
	C194.049088,345.647400 197.096939,345.367645 200.578217,345.169250 
z"/>
<path fill="#FDFAFC" opacity="1.000000" stroke="none" 
	d="
M189.850677,359.641602 
	C192.225769,359.199524 194.307251,358.935242 196.737289,358.514343 
	C233.972351,358.373322 270.858887,358.420929 307.745300,358.382111 
	C316.975494,358.372375 325.493286,360.466705 333.354736,366.057648 
	C337.733978,371.532471 343.128143,376.367706 345.589142,382.399628 
	C352.163696,398.513916 344.473236,416.539856 328.777405,424.549469 
	C327.006683,425.453064 325.170563,426.228424 323.087158,427.245972 
	C318.054260,428.004456 313.300751,429.061920 308.543427,429.079468 
	C272.132996,429.213715 235.721588,429.219849 199.310974,429.108368 
	C181.601135,429.054138 167.078171,417.870422 162.720718,401.155792 
	C160.001297,381.005341 169.284286,366.896271 189.850677,359.641602 
M175.090027,383.994751 
	C174.945084,384.643707 174.796921,385.291992 174.655685,385.941742 
	C172.057480,397.894867 177.216614,409.354370 187.771866,415.077362 
	C197.976440,420.610260 211.381516,418.668671 219.576065,410.470856 
	C227.583801,402.459930 229.433624,389.367401 223.645325,379.099762 
	C218.456604,369.895660 210.329880,365.468536 199.748520,365.803925 
	C187.774414,366.183380 179.977341,372.508392 175.090027,383.994751 
M286.251007,405.018616 
	C287.113464,406.240173 287.891541,407.532837 288.851868,408.671875 
	C295.862244,416.986847 307.190765,420.290619 317.282410,417.011414 
	C328.081482,413.502319 334.836853,405.095184 335.774628,393.997711 
	C336.655945,383.568390 330.646820,373.090057 321.004608,368.242676 
	C311.786224,363.608307 298.818268,365.608887 291.244354,372.833679 
	C282.354858,381.313568 280.540375,392.051666 286.251007,405.018616 
z"/>
<path fill="#AE2D7C" opacity="1.000000" stroke="none" 
	d="
M175.231598,383.619019 
	C179.977341,372.508392 187.774414,366.183380 199.748520,365.803925 
	C210.329880,365.468536 218.456604,369.895660 223.645325,379.099762 
	C229.433624,389.367401 227.583801,402.459930 219.576065,410.470856 
	C211.381516,418.668671 197.976440,420.610260 187.771866,415.077362 
	C177.216614,409.354370 172.057480,397.894867 174.655685,385.941742 
	C174.796921,385.291992 174.945084,384.643707 175.231598,383.619019 
M199.645996,387.352539 
	C203.993500,393.427429 209.616592,394.727539 214.366776,390.756073 
	C218.477875,387.318939 218.794052,380.992035 214.865585,377.031952 
	C211.787598,373.929230 208.061874,372.932495 203.943817,374.838623 
	C199.603470,376.847595 198.218781,380.497986 199.645996,387.352539 
z"/>
<path fill="#AF2D7C" opacity="1.000000" stroke="none" 
	d="
M286.085938,404.678741 
	C280.540375,392.051666 282.354858,381.313568 291.244354,372.833679 
	C298.818268,365.608887 311.786224,363.608307 321.004608,368.242676 
	C330.646820,373.090057 336.655945,383.568390 335.774628,393.997711 
	C334.836853,405.095184 328.081482,413.502319 317.282410,417.011414 
	C307.190765,420.290619 295.862244,416.986847 288.851868,408.671875 
	C287.891541,407.532837 287.113464,406.240173 286.085938,404.678741 
M322.629578,391.371948 
	C326.132599,388.674683 328.272980,384.948029 326.057465,381.011139 
	C324.459503,378.171600 321.201294,375.094299 318.234772,374.544434 
	C315.556915,374.048065 311.530731,376.135712 309.427002,378.347046 
	C306.381042,381.548889 307.092285,385.856567 309.953949,389.247650 
	C313.201813,393.096344 317.264404,394.242462 322.629578,391.371948 
z"/>
<path fill="#FDF8FA" opacity="1.000000" stroke="none" 
	d="
M199.453156,386.999207 
	C198.218781,380.497986 199.603470,376.847595 203.943817,374.838623 
	C208.061874,372.932495 211.787598,373.929230 214.865585,377.031952 
	C218.794052,380.992035 218.477875,387.318939 214.366776,390.756073 
	C209.616592,394.727539 203.993500,393.427429 199.453156,386.999207 
z"/>
<path fill="#FDF8FA" opacity="1.000000" stroke="none" 
	d="
M322.296082,391.570923 
	C317.264404,394.242462 313.201813,393.096344 309.953949,389.247650 
	C307.092285,385.856567 306.381042,381.548889 309.427002,378.347046 
	C311.530731,376.135712 315.556915,374.048065 318.234772,374.544434 
	C321.201294,375.094299 324.459503,378.171600 326.057465,381.011139 
	C328.272980,384.948029 326.132599,388.674683 322.296082,391.570923 
z"/>
</svg>